<svg width="12" height="15" viewBox="0 0 12 15" fill="none" xmlns="http://www.w3.org/2000/svg">
<path d="M5.66667 8.9165C6.05625 8.9165 6.38976 8.77779 6.66719 8.50036C6.94462 8.22293 7.08333 7.88942 7.08333 7.49984C7.08333 7.11025 6.94462 6.77675 6.66719 6.49932C6.38976 6.22189 6.05625 6.08317 5.66667 6.08317C5.27708 6.08317 4.94358 6.22189 4.66615 6.49932C4.38872 6.77675 4.25 7.11025 4.25 7.49984C4.25 7.88942 4.38872 8.22293 4.66615 8.50036C4.94358 8.77779 5.27708 8.9165 5.66667 8.9165ZM2.83333 11.7498H8.5V11.3425C8.5 11.0592 8.42326 10.7995 8.26979 10.5634C8.11632 10.3273 7.90382 10.1502 7.63229 10.0321C7.32535 9.90227 7.00955 9.80192 6.6849 9.73109C6.36024 9.66025 6.02083 9.62484 5.66667 9.62484C5.3125 9.62484 4.97309 9.66025 4.64844 9.73109C4.32378 9.80192 4.00799 9.90227 3.70104 10.0321C3.42951 10.1502 3.21701 10.3273 3.06354 10.5634C2.91007 10.7995 2.83333 11.0592 2.83333 11.3425V11.7498ZM9.91667 14.5832H1.41667C1.02708 14.5832 0.693576 14.4445 0.416146 14.167C0.138715 13.8896 0 13.5561 0 13.1665V1.83317C0 1.44359 0.138715 1.11008 0.416146 0.83265C0.693576 0.555219 1.02708 0.416504 1.41667 0.416504H7.08333L11.3333 4.6665V13.1665C11.3333 13.5561 11.1946 13.8896 10.9172 14.167C10.6398 14.4445 10.3062 14.5832 9.91667 14.5832ZM9.91667 13.1665V5.26859L6.48125 1.83317H1.41667V13.1665H9.91667Z" fill="white"/>
</svg>
