<svg width="130" height="78" viewBox="0 0 130 78" fill="none" xmlns="http://www.w3.org/2000/svg">
<g opacity="0.5" clip-path="url(#clip0_350_661)">
<path opacity="0.45" d="M38.0162 2.68191C38.8437 0.54914 40.3746 -0.0249596 42.3429 1.33412e-06C48.0739 0.0693371 53.8073 0.0443762 59.5383 1.33412e-06C60.2015 -0.0282634 60.8618 0.112964 61.4687 0.412897C62.0755 0.712831 62.613 1.16354 63.04 1.73062C72.2635 13.2089 81.5027 24.6725 90.7577 36.1212C92.3905 38.1486 92.393 39.8431 90.7577 41.8677C81.5127 53.3312 72.2734 64.7948 63.04 76.2583C62.612 76.8244 62.0739 77.2741 61.4666 77.573C60.8594 77.872 60.199 78.0123 59.5358 77.9834C53.8048 77.9473 48.0739 77.9251 42.3429 77.9834C40.3722 78.0055 38.8413 77.4287 38.0137 75.2987V73.6346C38.3607 72.7976 38.8172 72.0228 39.3681 71.3354C47.8328 60.8667 56.295 50.396 64.7548 39.9236C65.3612 39.1747 65.3612 38.7781 64.7548 38.0321C56.2801 27.591 47.8196 17.1296 39.3731 6.64792C38.8242 5.96028 38.3671 5.18776 38.0162 4.35429V2.68191Z" fill="#2D99AD"/>
<path opacity="0.15" d="M88.81 0.0277641C91.7923 0.0277641 94.7597 0.0471781 97.732 0.0277641C98.3354 0.0020671 98.9361 0.130066 99.4886 0.402052C100.041 0.674039 100.531 1.08287 100.921 1.59752C110.214 13.1461 119.516 24.6854 128.827 36.2155C130.388 38.1569 130.39 39.8709 128.827 41.8012C119.508 53.3609 110.186 64.9224 100.861 76.4857C100.502 76.9627 100.051 77.3441 99.5432 77.6022C99.0351 77.8604 98.4816 77.9887 97.9234 77.9778C91.8221 77.9778 85.7184 77.9778 79.6147 77.9778C77.378 77.9778 75.8868 76.3304 76.0583 74.095C76.1329 73.0744 76.6324 72.3034 77.2239 71.5712C85.7449 61.0155 94.2684 50.4617 102.794 39.9097C103.373 39.1969 103.388 38.8253 102.794 38.1014C94.2386 27.5402 85.6994 16.9633 77.1767 6.3706C75.6383 4.46248 75.6855 2.26038 77.2636 0.837606C77.9794 0.196943 78.8244 0.044404 79.7017 0.044404C82.7386 0.0222166 85.7756 0.0277641 88.81 0.0277641Z" fill="#2D99AD"/>
<path d="M12.7612 0.0277641C15.7435 0.0277641 18.7109 0.0471781 21.6832 0.0277641C22.2866 0.0020671 22.8873 0.130066 23.4398 0.402052C23.9923 0.674039 24.482 1.08287 24.8717 1.59752C34.1632 13.1461 43.4654 24.6854 52.7784 36.2155C54.3391 38.1569 54.3416 39.8709 52.7784 41.8012C43.4588 53.3609 34.1367 64.9224 24.8121 76.4857C24.4528 76.9627 24.0026 77.3441 23.4944 77.6022C22.9862 77.8604 22.4328 77.9887 21.8746 77.9778C15.7733 77.9778 9.66958 77.9778 3.56585 77.9778C1.32915 77.9778 -0.161994 76.3304 0.00948706 74.095C0.084044 73.0744 0.583576 72.3034 1.17506 71.5712C9.69609 61.0155 18.2196 50.4617 26.7456 39.9097C27.3247 39.1969 27.3396 38.8253 26.7456 38.1014C18.1898 27.5402 9.65053 16.9633 1.12784 6.3706C-0.410517 4.46248 -0.363296 2.26038 1.21483 0.837606C1.93057 0.196943 2.77555 0.044404 3.65284 0.044404C6.68979 0.0222166 9.72674 0.0277641 12.7612 0.0277641Z" fill="#2D99AD"/>
</g>
<defs>
<clipPath id="clip0_350_661">
<rect width="130" height="78" fill="white"/>
</clipPath>
</defs>
</svg>
