<svg width="14" height="20" viewBox="0 0 14 20" fill="none" xmlns="http://www.w3.org/2000/svg">
<path d="M7.60607 0.321777C7.85462 0.39044 8.1078 0.441073 8.36364 0.473289C9.7327 0.754632 10.9818 1.45106 11.9409 2.46775C12.9 3.48443 13.5224 4.77198 13.7235 6.15511C13.8993 7.48716 13.7365 8.84205 13.25 10.0945C12.6806 11.6182 11.9303 13.0679 11.0152 14.4127C9.89777 16.1362 8.64778 17.7839 7.47354 19.5074C7.424 19.5856 7.35544 19.65 7.27431 19.6947C7.19318 19.7393 7.10208 19.7628 7.00948 19.7628C6.91688 19.7628 6.82583 19.7393 6.7447 19.6947C6.66358 19.65 6.59502 19.5856 6.54547 19.5074C5.1629 17.4998 3.6667 15.568 2.4167 13.4847C1.6109 12.2088 0.974261 10.8336 0.522758 9.39375C0.226096 8.47931 0.125045 7.51271 0.226194 6.55669C0.327342 5.60067 0.628424 4.67662 1.10987 3.84451C1.62012 2.93511 2.33657 2.15809 3.20166 1.57588C4.06675 0.993673 5.05636 0.622518 6.09094 0.492232C6.09094 0.492232 6.28031 0.492232 6.35607 0.492232L7.60607 0.321777ZM1.33714 7.31041C1.35326 7.7902 1.42317 8.26666 1.5455 8.73087C1.88833 9.96843 2.39804 11.1536 3.06063 12.2536C4.21593 14.2612 5.61742 16.0415 6.94318 17.9354C6.94318 18.068 7.03791 17.9354 7.09473 17.9354C8.02276 16.5907 8.98869 15.2839 9.89778 13.9203C10.8137 12.5901 11.5761 11.1606 12.1705 9.6589C12.585 8.61301 12.7409 7.4825 12.625 6.36344C12.4224 4.87603 11.6394 3.52924 10.4471 2.61724C9.25475 1.70523 7.74996 1.30215 6.26139 1.49602C4.86615 1.68298 3.58997 2.38125 2.6802 3.45548C1.77043 4.52971 1.29182 5.90342 1.33714 7.31041Z" fill="white"/>
<path d="M10.4091 7.1401C10.4091 7.81516 10.2086 8.47502 9.83318 9.03605C9.45774 9.59707 8.92422 10.034 8.30019 10.2915C7.67616 10.5489 6.98974 10.6153 6.32793 10.4822C5.66612 10.3492 5.05872 10.0226 4.58271 9.54391C4.1067 9.06525 3.78351 8.45604 3.65412 7.7935C3.52473 7.13095 3.5949 6.44491 3.85584 5.82232C4.11677 5.19973 4.55672 4.66862 5.11983 4.29631C5.68294 3.92401 6.34387 3.72726 7.01891 3.73101C7.91978 3.73601 8.78202 4.0974 9.41726 4.73618C10.0525 5.37497 10.4091 6.23922 10.4091 7.1401ZM7.00001 4.86737C6.55051 4.86737 6.1111 5.00067 5.73735 5.2504C5.3636 5.50013 5.07227 5.85508 4.90025 6.27036C4.72824 6.68565 4.68321 7.14262 4.7709 7.58349C4.8586 8.02435 5.07508 8.42932 5.39293 8.74716C5.71078 9.06501 6.11572 9.28147 6.55658 9.36916C6.99745 9.45685 7.45442 9.41185 7.86971 9.23983C8.28499 9.06781 8.63995 8.77651 8.88968 8.40276C9.13941 8.02902 9.27271 7.5896 9.27271 7.1401C9.27523 6.84094 9.21818 6.54427 9.10486 6.26739C8.99154 5.99051 8.8242 5.73896 8.61265 5.52741C8.4011 5.31587 8.14959 5.14855 7.87271 5.03523C7.59583 4.92191 7.29918 4.86485 7.00001 4.86737Z" fill="white"/>
</svg>
