<svg width="14" height="13" viewBox="0 0 14 13" fill="none" xmlns="http://www.w3.org/2000/svg">
<path d="M7 7.22222V0.722222C7 0.517593 7.07454 0.346065 7.22361 0.207639C7.37269 0.069213 7.55741 0 7.77778 0H13.2222C13.4426 0 13.6273 0.069213 13.7764 0.207639C13.9255 0.346065 14 0.517593 14 0.722222V4.33333C14 4.53796 13.9255 4.70949 13.7764 4.84792C13.6273 4.98634 13.4426 5.05556 13.2222 5.05556H9.33333L7 7.22222ZM8.55556 3.61111H12.4444V1.44444H8.55556V3.61111ZM13.1833 13C11.563 13 9.96204 12.672 8.38056 12.016C6.79907 11.36 5.36019 10.4301 4.06389 9.22639C2.76759 8.02269 1.7662 6.68657 1.05972 5.21806C0.353241 3.74954 0 2.26296 0 0.758333C0 0.541667 0.0777778 0.361111 0.233333 0.216667C0.388889 0.0722222 0.583333 0 0.816667 0H3.96667C4.14815 0 4.31019 0.0571759 4.45278 0.171528C4.59537 0.28588 4.67963 0.421296 4.70556 0.577778L5.21111 3.10556C5.23704 3.29815 5.23056 3.46065 5.19167 3.59306C5.15278 3.72546 5.08148 3.83981 4.97778 3.93611L3.09167 5.70556C3.35093 6.15093 3.6588 6.58125 4.01528 6.99653C4.37176 7.41181 4.76389 7.81204 5.19167 8.19722C5.59352 8.57037 6.01481 8.91644 6.45556 9.23542C6.8963 9.5544 7.36296 9.8463 7.85556 10.1111L9.68333 8.41389C9.8 8.30556 9.95232 8.22431 10.1403 8.17014C10.3282 8.11597 10.513 8.10093 10.6944 8.125L13.3778 8.63056C13.5593 8.6787 13.7083 8.76597 13.825 8.89236C13.9417 9.01875 14 9.16019 14 9.31667V12.2417C14 12.4583 13.9222 12.6389 13.7667 12.7833C13.6111 12.9278 13.4167 13 13.1833 13ZM2.35278 4.33333L3.63611 3.14167L3.30556 1.44444H1.575C1.63981 1.93796 1.73056 2.42546 1.84722 2.90694C1.96389 3.38843 2.13241 3.86389 2.35278 4.33333ZM9.31389 10.7972C9.81944 11.0019 10.3347 11.1644 10.8597 11.2847C11.3847 11.4051 11.913 11.4833 12.4444 11.5194V9.93056L10.6167 9.5875L9.31389 10.7972Z" fill="white"/>
</svg>
