<svg width="24" height="17" viewBox="0 0 24 17" fill="none" xmlns="http://www.w3.org/2000/svg">
<path d="M0.0826235 1.9026C0.188175 1.5493 0.332321 1.20887 0.512387 0.887546C0.696637 0.617057 0.943226 0.395539 1.23108 0.241947C1.51893 0.0883546 1.83948 0.00726422 2.16526 0.00561307H21.7518C22.1734 -0.0256291 22.5944 0.0740862 22.9579 0.291307C23.3215 0.508528 23.6101 0.832797 23.7848 1.22035C23.9223 1.52352 23.9955 1.85223 23.9997 2.18549C23.9997 6.40102 23.9997 10.611 23.9997 14.8155C24.0045 15.1087 23.9496 15.3999 23.8383 15.671C23.7271 15.9421 23.5617 16.1873 23.3526 16.3916C23.1435 16.5959 22.8951 16.7548 22.6226 16.8587C22.3501 16.9625 22.0594 17.009 21.7683 16.9953H5.61976C4.52886 16.9953 3.42144 16.9953 2.31401 16.9953C1.76692 17.0311 1.22629 16.8598 0.798189 16.515C0.370084 16.1702 0.0854109 15.6768 0 15.1316L0.0826235 1.9026ZM2.51235 1.43668L2.6611 1.58644L10.5123 9.39073C10.7106 9.61189 10.9529 9.78868 11.2233 9.90968C11.4938 10.0307 11.7865 10.0932 12.0825 10.0932C12.3785 10.0932 12.6711 10.0307 12.9416 9.90968C13.2121 9.78868 13.4543 9.61189 13.6527 9.39073L21.4212 1.61972L21.5865 1.43668H2.51235ZM2.64461 15.5643H21.5039L15.6031 9.49057L14.6114 10.5056C14.2815 10.8499 13.886 11.1236 13.4487 11.3106C13.0114 11.4976 12.5411 11.594 12.066 11.594C11.5908 11.594 11.1205 11.4976 10.6832 11.3106C10.2459 11.1236 9.85044 10.8499 9.52052 10.5056L8.56187 9.52386L2.64461 15.5643ZM1.58674 2.43509V14.5991L7.52056 8.5088L1.58674 2.43509ZM22.7435 2.43509L16.7767 8.54208L22.7931 14.5659L22.7435 2.43509Z" fill="white"/>
</svg>
