<svg width="12" height="16" viewBox="0 0 12 16" fill="none" xmlns="http://www.w3.org/2000/svg">
<path d="M6 9.5C6.4125 9.5 6.76563 9.35313 7.05938 9.05938C7.35313 8.76562 7.5 8.4125 7.5 8C7.5 7.5875 7.35313 7.23438 7.05938 6.94063C6.76563 6.64688 6.4125 6.5 6 6.5C5.5875 6.5 5.23438 6.64688 4.94063 6.94063C4.64688 7.23438 4.5 7.5875 4.5 8C4.5 8.4125 4.64688 8.76562 4.94063 9.05938C5.23438 9.35313 5.5875 9.5 6 9.5ZM3 12.5H9V12.0688C9 11.7688 8.91875 11.4938 8.75625 11.2438C8.59375 10.9938 8.36875 10.8063 8.08125 10.6813C7.75625 10.5438 7.42188 10.4375 7.07813 10.3625C6.73438 10.2875 6.375 10.25 6 10.25C5.625 10.25 5.26562 10.2875 4.92188 10.3625C4.57812 10.4375 4.24375 10.5438 3.91875 10.6813C3.63125 10.8063 3.40625 10.9938 3.24375 11.2438C3.08125 11.4938 3 11.7688 3 12.0688V12.5ZM10.5 15.5H1.5C1.0875 15.5 0.734375 15.3531 0.440625 15.0594C0.146875 14.7656 0 14.4125 0 14V2C0 1.5875 0.146875 1.23438 0.440625 0.940625C0.734375 0.646875 1.0875 0.5 1.5 0.5H7.5L12 5V14C12 14.4125 11.8531 14.7656 11.5594 15.0594C11.2656 15.3531 10.9125 15.5 10.5 15.5ZM10.5 14V5.6375L6.8625 2H1.5V14H10.5Z" fill="#2D99AD"/>
</svg>
