<svg width="16" height="15" viewBox="0 0 16 15" fill="none" xmlns="http://www.w3.org/2000/svg">
<path d="M1.6 15C1.16 15 0.783333 14.8454 0.47 14.5362C0.156667 14.227 0 13.8553 0 13.4211V4.73684C0 4.30263 0.156667 3.93092 0.47 3.62171C0.783333 3.3125 1.16 3.15789 1.6 3.15789H4.8V1.57895C4.8 1.14474 4.95667 0.773026 5.27 0.463816C5.58333 0.154605 5.96 0 6.4 0H9.6C10.04 0 10.4167 0.154605 10.73 0.463816C11.0433 0.773026 11.2 1.14474 11.2 1.57895V3.15789H14.4C14.84 3.15789 15.2167 3.3125 15.53 3.62171C15.8433 3.93092 16 4.30263 16 4.73684V13.4211C16 13.8553 15.8433 14.227 15.53 14.5362C15.2167 14.8454 14.84 15 14.4 15H1.6ZM6.4 3.15789H9.6V1.57895H6.4V3.15789ZM14.4 10.2632H10.4V11.8421H5.6V10.2632H1.6V13.4211H14.4V10.2632ZM7.2 10.2632H8.8V8.68421H7.2V10.2632ZM1.6 8.68421H5.6V7.10526H10.4V8.68421H14.4V4.73684H1.6V8.68421Z" fill="#2D99AD"/>
</svg>
