<svg width="12" height="13" viewBox="0 0 12 13" fill="none" xmlns="http://www.w3.org/2000/svg">
<path d="M1.33333 13C0.966666 13 0.652778 12.8502 0.391667 12.5507C0.130556 12.2512 0 11.8912 0 11.4706V3.05882H3.33333V1.52941C3.33333 1.10882 3.46389 0.748775 3.725 0.449265C3.98611 0.149755 4.3 0 4.66667 0H7.33333C7.7 0 8.01389 0.149755 8.275 0.449265C8.53611 0.748775 8.66667 1.10882 8.66667 1.52941V3.05882H12V11.4706C12 11.8912 11.8694 12.2512 11.6083 12.5507C11.3472 12.8502 11.0333 13 10.6667 13H1.33333ZM1.33333 11.4706H10.6667V4.58823H1.33333V11.4706ZM4.66667 3.05882H7.33333V1.52941H4.66667V3.05882Z" fill="white"/>
</svg>
