<svg width="39" height="31" viewBox="0 0 39 31" fill="none" xmlns="http://www.w3.org/2000/svg">
<path d="M27.9375 11.2812C27.1562 11.2812 26.4922 11.0078 25.9453 10.4609C25.3984 9.91406 25.125 9.25 25.125 8.46875C25.125 7.6875 25.3984 7.02344 25.9453 6.47656C26.4922 5.92969 27.1562 5.65625 27.9375 5.65625C28.7188 5.65625 29.3828 5.92969 29.9297 6.47656C30.4766 7.02344 30.75 7.6875 30.75 8.46875C30.75 9.25 30.4766 9.91406 29.9297 10.4609C29.3828 11.0078 28.7188 11.2812 27.9375 11.2812ZM11.0625 11.2812C10.2812 11.2812 9.61719 11.0078 9.07031 10.4609C8.52344 9.91406 8.25 9.25 8.25 8.46875C8.25 7.6875 8.52344 7.02344 9.07031 6.47656C9.61719 5.92969 10.2812 5.65625 11.0625 5.65625C11.8438 5.65625 12.5078 5.92969 13.0547 6.47656C13.6016 7.02344 13.875 7.6875 13.875 8.46875C13.875 9.25 13.6016 9.91406 13.0547 10.4609C12.5078 11.0078 11.8438 11.2812 11.0625 11.2812ZM19.5 16.4375C18.7188 16.4375 18.0547 16.1641 17.5078 15.6172C16.9609 15.0703 16.6875 14.4062 16.6875 13.625C16.6875 12.8438 16.9609 12.1797 17.5078 11.6328C18.0547 11.0859 18.7188 10.8125 19.5 10.8125C20.2812 10.8125 20.9453 11.0859 21.4922 11.6328C22.0391 12.1797 22.3125 12.8438 22.3125 13.625C22.3125 14.4062 22.0391 15.0703 21.4922 15.6172C20.9453 16.1641 20.2812 16.4375 19.5 16.4375ZM19.5 6.125C18.7188 6.125 18.0547 5.85156 17.5078 5.30469C16.9609 4.75781 16.6875 4.09375 16.6875 3.3125C16.6875 2.53125 16.9609 1.86719 17.5078 1.32031C18.0547 0.773438 18.7188 0.5 19.5 0.5C20.2812 0.5 20.9453 0.773438 21.4922 1.32031C22.0391 1.86719 22.3125 2.53125 22.3125 3.3125C22.3125 4.09375 22.0391 4.75781 21.4922 5.30469C20.9453 5.85156 20.2812 6.125 19.5 6.125ZM19.5 30.5C18.875 30.5 18.2422 30.4531 17.6016 30.3594C16.9609 30.2656 16.3438 30.1406 15.75 29.9844V23.2812C15.75 22.1875 16.1172 21.2422 16.8516 20.4453C17.5859 19.6484 18.4688 19.25 19.5 19.25C20.5312 19.25 21.4141 19.6484 22.1484 20.4453C22.8828 21.2422 23.25 22.1875 23.25 23.2812V29.9844C22.6562 30.1406 22.0391 30.2656 21.3984 30.3594C20.7578 30.4531 20.125 30.5 19.5 30.5ZM12.9375 29C12.3125 28.75 11.7109 28.4688 11.1328 28.1562C10.5547 27.8438 10 27.5 9.46875 27.125C8.59375 26.5 7.89844 25.6875 7.38281 24.6875C6.86719 23.6875 6.60938 22.625 6.60938 21.5C6.60938 20.6875 6.52344 19.9297 6.35156 19.2266C6.17969 18.5234 5.875 17.8594 5.4375 17.2344C5.125 16.8281 4.53906 16.2109 3.67969 15.3828C2.82031 14.5547 2.03125 13.7812 1.3125 13.0625C0.96875 12.7188 0.796875 12.2812 0.796875 11.75C0.796875 11.2188 0.96875 10.7812 1.3125 10.4375C1.65625 10.0938 2.09375 9.92188 2.625 9.92188C3.15625 9.92188 3.59375 10.0938 3.9375 10.4375L11.1094 17.2344C11.7344 17.7969 12.1953 18.4609 12.4922 19.2266C12.7891 19.9922 12.9375 20.7812 12.9375 21.5938V29ZM26.0625 29V21.5938C26.0625 20.7812 26.2188 19.9844 26.5312 19.2031C26.8438 18.4219 27.2969 17.7656 27.8906 17.2344L35.0625 10.4375C35.4375 10.0938 35.8828 9.92188 36.3984 9.92188C36.9141 9.92188 37.3438 10.0938 37.6875 10.4375C38.0312 10.7812 38.2031 11.2188 38.2031 11.75C38.2031 12.2812 38.0312 12.7188 37.6875 13.0625C36.9688 13.7812 36.1797 14.5469 35.3203 15.3594C34.4609 16.1719 33.875 16.7969 33.5625 17.2344C33.125 17.8594 32.8203 18.5234 32.6484 19.2266C32.4766 19.9297 32.3906 20.6875 32.3906 21.5C32.3906 22.625 32.1328 23.6953 31.6172 24.7109C31.1016 25.7266 30.3906 26.5469 29.4844 27.1719C28.9844 27.5156 28.4453 27.8438 27.8672 28.1562C27.2891 28.4688 26.6875 28.75 26.0625 29Z" fill="#2D99AD"/>
</svg>
