<svg width="39" height="32" viewBox="0 0 39 32" fill="none" xmlns="http://www.w3.org/2000/svg">
<path d="M3.9 18.9547C3.9 16.662 4.67188 14.6922 6.21562 13.0453C7.75937 11.3984 9.685 10.4781 11.9925 10.2844L8.97 13.2875L11.7 16L19.5 8.25L11.7 0.5L8.97 3.2125L12.09 6.3125C8.6775 6.50625 5.80937 7.81406 3.48562 10.2359C1.16187 12.6578 0 15.5479 0 18.9062C0 22.426 1.22688 25.4049 3.68062 27.843C6.13437 30.281 9.1325 31.5 12.675 31.5H19.5V27.625H12.675C10.2375 27.625 8.16562 26.7854 6.45937 25.1063C4.75312 23.4271 3.9 21.3766 3.9 18.9547ZM23.4 6.3125V10.1875H39V6.3125H23.4ZM23.4 16.9688V20.8438H39V16.9688H23.4ZM23.4 27.625V31.5H39V27.625H23.4Z" fill="#2D99AD"/>
</svg>
