<svg width="12" height="15" viewBox="0 0 12 15" fill="none" xmlns="http://www.w3.org/2000/svg">
<path d="M4.95833 11.0415H6.375V6.7915H4.95833V11.0415ZM5.66667 5.37484C5.86736 5.37484 6.03559 5.30696 6.17135 5.17119C6.30712 5.03543 6.375 4.8672 6.375 4.6665C6.375 4.46581 6.30712 4.29758 6.17135 4.16182C6.03559 4.02605 5.86736 3.95817 5.66667 3.95817C5.46597 3.95817 5.29774 4.02605 5.16198 4.16182C5.02622 4.29758 4.95833 4.46581 4.95833 4.6665C4.95833 4.8672 5.02622 5.03543 5.16198 5.17119C5.29774 5.30696 5.46597 5.37484 5.66667 5.37484ZM5.66667 14.5832C4.02569 14.17 2.67101 13.2285 1.6026 11.7587C0.534201 10.2889 0 8.65678 0 6.86234V2.5415L5.66667 0.416504L11.3333 2.5415V6.86234C11.3333 8.65678 10.7991 10.2889 9.73073 11.7587C8.66233 13.2285 7.30764 14.17 5.66667 14.5832ZM5.66667 13.0957C6.89444 12.7061 7.90972 11.9269 8.7125 10.7582C9.51528 9.58942 9.91667 8.29081 9.91667 6.86234V3.51546L5.66667 1.92171L1.41667 3.51546V6.86234C1.41667 8.29081 1.81806 9.58942 2.62083 10.7582C3.42361 11.9269 4.43889 12.7061 5.66667 13.0957Z" fill="white"/>
</svg>
