<svg width="20" height="19" viewBox="0 0 20 19" fill="none" xmlns="http://www.w3.org/2000/svg">
<path d="M1.11619 5.42857H15.9574V3.61905H1.11619V5.42857ZM2.01619 18.0952C1.49369 18.0952 1.0464 17.9181 0.674314 17.5637C0.302231 17.2093 0.116189 16.7833 0.116189 16.2857V3.61905C0.116189 3.12143 0.302231 2.69544 0.674314 2.34107C1.0464 1.98671 1.49369 1.80952 2.01619 1.80952H2.96619V0H4.86619V1.80952H12.4662V0H14.3662V1.80952H15.3162C15.8387 1.80952 16.286 1.98671 16.6581 2.34107C17.0301 2.69544 17.2162 3.12143 17.2162 3.61905V8.75357C16.9154 8.61786 16.6066 8.50476 16.2899 8.41429C15.9733 8.32381 16.2899 8.41429 15.9574 8.32812V6.95238H1.11619V16.5943H7.99994C7.99994 16.5943 8.24265 16.9341 8.39306 17.2357C8.54348 17.5373 8.72161 17.8238 8.92744 18.0952H2.01619ZM14.3662 19C13.052 19 11.9318 18.5589 11.0056 17.6768C10.0793 16.7946 9.61619 15.7278 9.61619 14.4762C9.61619 13.2246 10.0793 12.1577 11.0056 11.2756C11.9318 10.3935 13.052 9.95238 14.3662 9.95238C15.6804 9.95238 16.8006 10.3935 17.7268 11.2756C18.6531 12.1577 19.1162 13.2246 19.1162 14.4762C19.1162 15.7278 18.6531 16.7946 17.7268 17.6768C16.8006 18.5589 15.6804 19 14.3662 19ZM15.9574 16.625L16.6224 15.9917L14.8412 14.2952V11.7619H13.8912V14.6571L15.9574 16.625Z" fill="white"/>
</svg>
