<svg width="17" height="21" viewBox="0 0 17 21" fill="none" xmlns="http://www.w3.org/2000/svg">
<path d="M0.8125 6.38454C0.820021 5.3448 1.06952 4.32108 1.54125 3.39447C2.01298 2.46786 2.69396 1.66381 3.53029 1.046C3.86753 0.797747 4.23231 0.589294 4.61741 0.424791C4.78443 0.334738 4.97121 0.287598 5.16097 0.287598C5.35072 0.287598 5.5375 0.334738 5.70452 0.424791C5.98075 0.568526 6.22506 0.766629 6.42279 1.00718C7.32321 2.049 7.98568 3.27458 8.36408 4.59856C8.53154 5.07668 8.51496 5.60003 8.31757 6.06658C8.12018 6.53314 7.75615 6.90948 7.29639 7.12223L6.71397 7.45226C6.41272 7.58513 6.1731 7.82731 6.0434 8.12995C5.9137 8.43259 5.90359 8.77315 6.01514 9.08294C6.05954 9.25211 6.12476 9.41513 6.20928 9.56826C6.98579 10.8689 7.74288 12.189 8.49998 13.4508C8.7024 13.7831 9 14.0469 9.35415 14.2079C9.52171 14.307 9.71279 14.3593 9.90743 14.3593C10.1021 14.3593 10.2932 14.307 10.4607 14.2079L11.2566 13.742C11.6238 13.5239 12.0484 13.422 12.4746 13.4498C12.9007 13.4775 13.3085 13.6335 13.6444 13.8973C13.7502 13.9708 13.8478 14.0554 13.9356 14.1497C14.9136 15.1739 15.6557 16.3997 16.1098 17.7411C16.2098 18.0342 16.243 18.3459 16.2069 18.6535C16.1865 18.8302 16.1271 19.0002 16.0331 19.1513C15.9391 19.3023 15.8129 19.4307 15.6633 19.5271C14.4744 20.3254 13.0545 20.7077 11.6254 20.6142C9.9588 20.4972 8.38278 19.8119 7.16049 18.6729C6.31313 17.979 5.59087 17.1452 5.02506 16.2075C3.97677 14.4991 2.96732 12.7908 2.01609 11.0436C1.24374 9.6109 0.830725 8.01209 0.8125 6.38454ZM11.936 19.6435C12.8366 19.648 13.724 19.4278 14.518 19.0029C15.2557 18.6147 15.2751 18.537 14.9644 17.7605C14.6405 17.01 14.2301 16.2998 13.7414 15.6445C13.5431 15.3331 13.2938 15.0575 13.0038 14.8291C12.8476 14.6585 12.6324 14.5535 12.4017 14.5355C12.171 14.5174 11.9421 14.5877 11.7613 14.7321L10.8489 15.2562C10.6242 15.3613 10.3787 15.4144 10.1307 15.4115C9.63714 15.4483 9.14353 15.3414 8.70947 15.1037C8.27541 14.866 7.91944 14.5077 7.68462 14.072C6.88869 12.752 6.13162 11.3931 5.35511 10.073C5.15847 9.76109 5.03257 9.4099 4.98626 9.04411C4.89543 8.56011 4.959 8.0598 5.16802 7.6139C5.37703 7.16801 5.72093 6.79907 6.15104 6.55926C6.45287 6.41013 6.74464 6.24153 7.02459 6.05453C7.17146 5.9796 7.29146 5.8609 7.36796 5.71485C7.44447 5.56879 7.4737 5.40258 7.45167 5.23918C7.47188 5.10404 7.47188 4.96665 7.45167 4.83151C7.11014 3.69818 6.54951 2.64289 5.80156 1.72546C5.68324 1.57715 5.53843 1.45208 5.37448 1.35661C5.33488 1.32817 5.28739 1.31287 5.23863 1.31287C5.18988 1.31287 5.14233 1.32817 5.10273 1.35661C4.86978 1.51191 4.61738 1.60898 4.40384 1.76428C3.67696 2.27614 3.08167 2.95287 2.66664 3.73906C2.25161 4.52525 2.02869 5.39856 2.01609 6.28748C1.9868 7.79293 2.35507 9.27948 3.08377 10.5971C3.99618 12.3249 5.02508 13.9944 6.01514 15.6639C6.52825 16.526 7.18478 17.2941 7.95643 17.9352C9.04443 18.9494 10.4514 19.5534 11.936 19.6435Z" fill="white"/>
</svg>
